{
  "accessors": [
    {
      "bufferView": 0,
      "componentType": 5125,
      "count": 12444,
      "type": "SCALAR"
    },
    {
      "bufferView": 1,
      "componentType": 5126,
      "count": 3974,
      "max": [
        2.24956130981445,
        4.1993408203125,
        2.24956130981445
      ],
      "min": [
        -2.24955987930298,
        -0.010650634765625,
        -2.24956130981445
      ],
      "type": "VEC3"
    },
    {
      "bufferView": 2,
      "componentType": 5126,
      "count": 3974,
      "type": "VEC3"
    },
    {
      "bufferView": 3,
      "componentType": 5126,
      "count": 3974,
      "type": "VEC2"
    }
  ],
  "asset": {
    "generator": "Substance Painter 7.1.0",
    "version": "2.0"
  },
  "bufferViews": [
    {
      "buffer": 0,
      "byteLength": 49776,
      "target": 34963
    },
    {
      "buffer": 0,
      "byteLength": 47688,
      "byteOffset": 49776,
      "target": 34962
    },
    {
      "buffer": 0,
      "byteLength": 47688,
      "byteOffset": 97464,
      "target": 34962
    },
    {
      "buffer": 0,
      "byteLength": 31792,
      "byteOffset": 145152,
      "target": 34962
    }
  ],
  "buffers": [
    {
      "byteLength": 176944,
      "uri": "Unity HD Render Pipeline (Metallic Standard).bin"
    }
  ],
  "images": [
    {
      "uri": "4011_baseColor.png"
    },
    {
      "uri": "4011_occlusionRoughnessMetallic.png"
    },
    {
      "uri": "4011_normal.png"
    }
  ],
  "materials": [
    {
      "alphaMode": "OPAQUE",
      "name": "4011",
      "normalTexture": {
        "index": 2
      },
      "occlusionTexture": {
        "index": 1
      },
      "pbrMetallicRoughness": {
        "baseColorTexture": {
          "index": 0
        },
        "metallicRoughnessTexture": {
          "index": 1
        }
      }
    }
  ],
  "meshes": [
    {
      "name": "Closed_4011",
      "primitives": [
        {
          "attributes": {
            "NORMAL": 2,
            "POSITION": 1,
            "TEXCOORD_0": 3
          },
          "indices": 0,
          "material": 0,
          "mode": 4
        }
      ]
    }
  ],
  "nodes": [
    {
      "children": [
        1
      ],
      "name": "RootNode"
    },
    {
      "children": [
        2
      ],
      "name": "Closed_4011"
    },
    {
      "mesh": 0,
      "name": "Closed_4011"
    }
  ],
  "samplers": [
    {
      "magFilter": 9729,
      "minFilter": 9985,
      "wrapS": 10497,
      "wrapT": 10497
    }
  ],
  "scene": 0,
  "scenes": [
    {
      "name": "Scene",
      "nodes": [
        0
      ]
    }
  ],
  "textures": [
    {
      "sampler": 0,
      "source": 0
    },
    {
      "sampler": 0,
      "source": 1
    },
    {
      "sampler": 0,
      "source": 2
    }
  ]
}